# xmcd
#
# Track frame offsets: 
#        150
#        35952
#        64019
#        106458
#        129182
#        147632
#        171474
#        189536
#        215208
#        245932
#        272095
#
# Disc length: 4045 seconds
#
# Revision: 0
# Processed by: cddbd v1.5.2PL0 Copyright (c) Steve Scherf et al.
# Submitted via: ExactAudioCopy v0.99pb4
#
DISCID=bb0fcb0b
DTITLE=L.C. Ulmer - Long Ways From Home
DYEAR=2007
DGENRE=Blues
TTITLE0=I've Been There
TTITLE1=Cleo's Back
TTITLE2=Burn Down the House
TTITLE3=Got Me Runnin
TTITLE4=I Rest My Case
TTITLE5=All By Myself
TTITLE6=Going Away to leave you
TTITLE7=Move Them Hips
TTITLE8=Long Ways From home
TTITLE9=Tell Me What's Wrong With You
TTITLE10=Money Blues
EXTD=
EXTT0=
EXTT1=
EXTT2=
EXTT3=
EXTT4=
EXTT5=
EXTT6=
EXTT7=
EXTT8=
EXTT9=
EXTT10=
PLAYORDER=
